<svg xmlns="http://www.w3.org/2000/svg" viewBox="120.9 12.7 134.2 19.7"><path d="M175.7 12.7c-5.7 0-10 4.6-10 9.8 0 5.1 4 9.9 9.9 9.9 5.7 0 9.9-4.6 9.9-9.8 0-5-3.9-9.9-9.8-9.9zm-.1 14.8c-2.9 0-4.9-2.4-4.9-4.9 0-2.6 2.1-4.9 4.9-4.9 2.9 0 4.9 2.4 4.9 4.9 0 2.6-2.1 4.9-4.9 4.9zm-54.7 4.8V12.8h8.4c3.6 0 6.6 3.2 6.6 6.8 0 3.4-2.6 6.7-6.4 6.7h-3.2v6h-5.4zm5.4-10.6h2.8c1.8 0 2-4.2-.1-4.2h-2.7v4.2zm24.5-9c-5.7 0-10 4.6-10 9.8 0 5.1 4 9.9 9.9 9.9 5.7 0 9.9-4.6 9.9-9.8 0-5-3.9-9.9-9.8-9.9zm-.1 14.8c-2.9 0-4.9-2.4-4.9-4.9 0-2.6 2.1-4.9 4.9-4.9 2.9 0 4.9 2.4 4.9 4.9 0 2.6-2.1 4.9-4.9 4.9zm46.4-4.8v9.6h-5.4V12.8h4.2l7.8 9.9v-9.9h5.4v19.5h-4.3l-7.7-9.6zm19.4 9.6V12.8h5.4v7.4l5.9-7.4h6l-7.1 8.7 7.6 10.8h-6.1l-4.8-7.2-1.5 1.5v5.6l-5.4.1zm38.6-14.8h-5.6v14.8h-5.4V17.5h-5.6v-4.7h16.6v4.7z" fill="#353744"/></svg>