<svg xmlns="http://www.w3.org/2000/svg" viewBox="35 -4.3 52.4 53.3"><linearGradient id="a" gradientUnits="userSpaceOnUse" x1="40.973" y1="26.081" x2="92.305" y2="77.413" gradientTransform="translate(0 -27.6)"><stop offset="0" stop-color="#c165dd"/><stop offset="1" stop-color="#5c27fe"/></linearGradient><path d="M66.5-.8c-1.8 1.7-4.6 1.9-6.6.4C53.4-5.2 44.7-4.2 39.6 1c-6.4 6.4-6.4 17.8 2 23.7 2 1.4 2.7 4.2 1.6 6.4-4.1 8.5 2.5 18.3 11.7 17.9 10.8-.5 15.7-13.3 8.5-20.9-4.1-4.3 1-11.2 6.3-8.7 7.5 3.6 17.7-1 17.7-11.1C87.5-4 73.8-7.9 66.5-.8z" fill="url(#a)"/><linearGradient id="b" gradientUnits="userSpaceOnUse" x1="43.483" y1="23.625" x2="94.762" y2="74.904" gradientTransform="translate(0 -27.6)"><stop offset="0" stop-color="#c165dd"/><stop offset="1" stop-color="#5c27fe"/></linearGradient><circle cx="81.2" cy="33.7" r="6.2" fill="url(#b)"/></svg>