<?xml version="1.0" encoding="utf-8"?>
<!-- Generator: Adobe Illustrator 19.1.1, SVG Export Plug-In . SVG Version: 6.00 Build 0)  -->
<svg version="1.1" id="Layer_1" xmlns="http://www.w3.org/2000/svg" xmlns:xlink="http://www.w3.org/1999/xlink" x="0px" y="0px"
	 viewBox="0 0 15 15" enable-background="new 0 0 15 15" xml:space="preserve">
<g>
	<polygon fill="#C3C3C3" points="9.3,4.3 7.5,6.1 5.7,4.3 4.3,5.7 6.1,7.5 4.3,9.3 5.7,10.7 7.5,8.9 9.3,10.7 10.7,9.3 8.9,7.5 
		10.7,5.7 	"/>
	<path fill="#C3C3C3" d="M7.5,0C3.4,0,0,3.4,0,7.5S3.4,15,7.5,15S15,11.6,15,7.5S11.6,0,7.5,0z M7.5,13.1c-3.1,0-5.6-2.5-5.6-5.6
		s2.5-5.6,5.6-5.6s5.6,2.5,5.6,5.6S10.6,13.1,7.5,13.1z"/>
</g>
</svg>
