<?xml version="1.0" encoding="utf-8"?>
<!-- Generator: Adobe Illustrator 19.1.1, SVG Export Plug-In . SVG Version: 6.00 Build 0)  -->
<svg version="1.1" id="Layer_1" xmlns="http://www.w3.org/2000/svg" xmlns:xlink="http://www.w3.org/1999/xlink" x="0px" y="0px"
	 viewBox="120.9 12.7 134.2 19.7" style="enable-background:new 120.9 12.7 134.2 19.7;" xml:space="preserve">
<style type="text/css">
	.st0{fill:#353744;}
</style>
<g>
	<g>
		<path class="st0" d="M175.7,12.7c-5.7,0-10,4.6-10,9.8c0,5.1,4,9.9,9.9,9.9c5.7,0,9.9-4.6,9.9-9.8
			C185.5,17.6,181.6,12.7,175.7,12.7z M175.6,27.5c-2.9,0-4.9-2.4-4.9-4.9c0-2.6,2.1-4.9,4.9-4.9c2.9,0,4.9,2.4,4.9,4.9
			C180.5,25.2,178.4,27.5,175.6,27.5z"/>
		<path class="st0" d="M120.9,32.3V12.8h8.4c3.6,0,6.6,3.2,6.6,6.8c0,3.4-2.6,6.7-6.4,6.7h-3.2v6H120.9z M126.3,21.7h2.8
			c1.8,0,2-4.2-0.1-4.2h-2.7V21.7z"/>
		<path class="st0" d="M150.8,12.7c-5.7,0-10,4.6-10,9.8c0,5.1,4,9.9,9.9,9.9c5.7,0,9.9-4.6,9.9-9.8
			C160.6,17.6,156.7,12.7,150.8,12.7z M150.7,27.5c-2.9,0-4.9-2.4-4.9-4.9c0-2.6,2.1-4.9,4.9-4.9c2.9,0,4.9,2.4,4.9,4.9
			C155.6,25.2,153.5,27.5,150.7,27.5z"/>
		<path class="st0" d="M197.1,22.7v9.6h-5.4V12.8h4.2l7.8,9.9v-9.9h5.4v19.5h-4.3L197.1,22.7z"/>
		<path class="st0" d="M216.5,32.3V12.8h5.4v7.4l5.9-7.4h6l-7.1,8.7l7.6,10.8h-6.1l-4.8-7.2l-1.5,1.5v5.6L216.5,32.3L216.5,32.3z"/>
		<path class="st0" d="M255.1,17.5h-5.6v14.8h-5.4V17.5h-5.6v-4.7h16.6V17.5z"/>
	</g>
</g>
</svg>
