<?xml version="1.0" encoding="utf-8"?>
<!-- Generator: Adobe Illustrator 19.1.1, SVG Export Plug-In . SVG Version: 6.00 Build 0)  -->
<svg version="1.1" id="Layer_1" xmlns="http://www.w3.org/2000/svg" xmlns:xlink="http://www.w3.org/1999/xlink" x="0px" y="0px"
	 viewBox="35 -4.3 52.4 53.3" style="enable-background:new 35 -4.3 52.4 53.3;" xml:space="preserve">
<style type="text/css">
	.st0{fill:url(#SVGID_1_);}
	.st1{fill:url(#SVGID_2_);}
</style>
<g>
	
		<linearGradient id="SVGID_1_" gradientUnits="userSpaceOnUse" x1="40.9727" y1="26.0815" x2="92.3045" y2="77.4134" gradientTransform="matrix(1 0 0 1 0 -27.6)">
		<stop  offset="0" style="stop-color:#C165DD"/>
		<stop  offset="1" style="stop-color:#5C27FE"/>
	</linearGradient>
	<path class="st0" d="M66.5-0.8c-1.8,1.7-4.6,1.9-6.6,0.4C53.4-5.2,44.7-4.2,39.6,1c-6.4,6.4-6.4,17.8,2,23.7c2,1.4,2.7,4.2,1.6,6.4
		c-4.1,8.5,2.5,18.3,11.7,17.9c10.8-0.5,15.7-13.3,8.5-20.9c-4.1-4.3,1-11.2,6.3-8.7c7.5,3.6,17.7-1,17.7-11.1
		C87.5-4,73.8-7.9,66.5-0.8z"/>
	
		<linearGradient id="SVGID_2_" gradientUnits="userSpaceOnUse" x1="43.4825" y1="23.6246" x2="94.7623" y2="74.9045" gradientTransform="matrix(1 0 0 1 0 -27.6)">
		<stop  offset="0" style="stop-color:#C165DD"/>
		<stop  offset="1" style="stop-color:#5C27FE"/>
	</linearGradient>
	<circle class="st1" cx="81.2" cy="33.7" r="6.2"/>
</g>
</svg>
